# xmcd
#
# Track frame offsets: 
#        150
#        13763
#        30939
#        43876
#        61726
#        76189
#        93250
#        111962
#        122574
#        138674
#        147811
#        165271
#        177073
#        198291
#        213804
#        225541
#        248218
#        259619
#        280121
#        298159
#        317620
#
# Disc length: 4482 seconds
#
# Revision: 7
# Processed by: cddbd v1.5.2PL0 Copyright (c) Steve Scherf et al.
# Submitted via: ExactAudioCopyFreeDBPlugin 1.0
#
DISCID=17118015
DTITLE=Various Artist - 2000 - Instrumental Gold Collection, Vol.3 [C
DTITLE=d 1]
DYEAR=2000
DGENRE=Classical
TTITLE0=Walter Murphy - A Fifth Of Beethoven
TTITLE1=Vanessa Mae - Contadanza
TTITLE2=Francis Goya - Nostalgia
TTITLE3=Ron Asprey - I Will Always Love You
TTITLE4=Blonker - Sidewalk Cafe
TTITLE5=Alan Parsons - Hawkeye
TTITLE6=Secret Service - Aux Deux Magots
TTITLE7=The Shadows - Chattanooga Choo Choo
TTITLE8=Fausto Papetti - Feelings
TTITLE9=Jan Holland - Black Eyes
TTITLE10=Alex Bollard - You Are Lady
TTITLE11=Paul Mauriat - Godfather
TTITLE12=Santana - I Love You Much To Much
TTITLE13=Ocarina Ii - Ocarina Ii (Fluite Solo)
TTITLE14=Bert Kaempfert - Twilight
TTITLE15=Julee Cruise - Twin Peaks Theme
TTITLE16=Saint Preux - Prelude Pour Plano
TTITLE17=Kenny G - The Moment
TTITLE18=Frank Duval - Main Theme Iii
TTITLE19=Errol Garner - Paris Mist
TTITLE20=James Last - Biscaya
EXTD=YEAR: 2000
EXTT0=
EXTT1=
EXTT2=
EXTT3=
EXTT4=
EXTT5=
EXTT6=
EXTT7=
EXTT8=
EXTT9=
EXTT10=
EXTT11=
EXTT12=
EXTT13=
EXTT14=
EXTT15=
EXTT16=
EXTT17=
EXTT18=
EXTT19=
EXTT20=
PLAYORDER=
